<svg width="131" height="131" viewBox="0 0 131 131" fill="none" xmlns="http://www.w3.org/2000/svg">
<path d="M64.9999 0.124592C100.898 0.0557815 130.056 29.1014 130.124 64.9999C130.193 100.898 101.148 130.056 65.2491 130.124C29.3506 130.193 0.193398 101.148 0.124588 65.2491C0.0557776 29.3506 29.1014 0.193402 64.9999 0.124592Z" fill="#715E9B"/>
<circle cx="65.0958" cy="65.0957" r="50" transform="rotate(89.8902 65.0958 65.0957)" fill="white"/>
<path d="M39.532 62.04V60.878H42.164V71H40.876V62.04H39.532ZM44.1984 69.978C45.3837 69.026 46.3124 68.2467 46.9844 67.64C47.6564 67.024 48.221 66.3847 48.6784 65.722C49.145 65.05 49.3784 64.392 49.3784 63.748C49.3784 63.1413 49.229 62.6653 48.9304 62.32C48.641 61.9653 48.1697 61.788 47.5164 61.788C46.8817 61.788 46.387 61.9887 46.0324 62.39C45.687 62.782 45.5004 63.3093 45.4724 63.972H44.2404C44.2777 62.9267 44.595 62.1193 45.1924 61.55C45.7897 60.9807 46.5597 60.696 47.5024 60.696C48.4637 60.696 49.2244 60.962 49.7844 61.494C50.3537 62.026 50.6384 62.7587 50.6384 63.692C50.6384 64.4667 50.405 65.2227 49.9384 65.96C49.481 66.688 48.9584 67.332 48.3704 67.892C47.7824 68.4427 47.031 69.0867 46.1164 69.824H50.9324V70.888H44.1984V69.978ZM52.4051 65.834C52.4051 64.2287 52.6664 62.978 53.1891 62.082C53.7118 61.1767 54.6264 60.724 55.9331 60.724C57.2304 60.724 58.1404 61.1767 58.6631 62.082C59.1858 62.978 59.4471 64.2287 59.4471 65.834C59.4471 67.4673 59.1858 68.7367 58.6631 69.642C58.1404 70.5473 57.2304 71 55.9331 71C54.6264 71 53.7118 70.5473 53.1891 69.642C52.6664 68.7367 52.4051 67.4673 52.4051 65.834ZM58.1871 65.834C58.1871 65.022 58.1311 64.336 58.0191 63.776C57.9164 63.2067 57.6971 62.7493 57.3611 62.404C57.0344 62.0587 56.5584 61.886 55.9331 61.886C55.2984 61.886 54.8131 62.0587 54.4771 62.404C54.1504 62.7493 53.9311 63.2067 53.8191 63.776C53.7164 64.336 53.6651 65.022 53.6651 65.834C53.6651 66.674 53.7164 67.3787 53.8191 67.948C53.9311 68.5173 54.1504 68.9747 54.4771 69.32C54.8131 69.6653 55.2984 69.838 55.9331 69.838C56.5584 69.838 57.0344 69.6653 57.3611 69.32C57.6971 68.9747 57.9164 68.5173 58.0191 67.948C58.1311 67.3787 58.1871 66.674 58.1871 65.834ZM75.0365 61.312V71H73.7625V63.776L70.5425 71H69.6465L66.4125 63.762V71H65.1385V61.312H66.5105L70.0945 69.32L73.6785 61.312H75.0365ZM77.8551 62.082C77.6125 62.082 77.4071 61.998 77.2391 61.83C77.0711 61.662 76.9871 61.4567 76.9871 61.214C76.9871 60.9713 77.0711 60.766 77.2391 60.598C77.4071 60.43 77.6125 60.346 77.8551 60.346C78.0885 60.346 78.2845 60.43 78.4431 60.598C78.6111 60.766 78.6951 60.9713 78.6951 61.214C78.6951 61.4567 78.6111 61.662 78.4431 61.83C78.2845 61.998 78.0885 62.082 77.8551 62.082ZM78.4711 63.328V71H77.1971V63.328H78.4711ZM84.3805 63.188C85.3138 63.188 86.0698 63.4727 86.6485 64.042C87.2271 64.602 87.5165 65.414 87.5165 66.478V71H86.2565V66.66C86.2565 65.8947 86.0651 65.3113 85.6825 64.91C85.2998 64.4993 84.7771 64.294 84.1145 64.294C83.4425 64.294 82.9058 64.504 82.5045 64.924C82.1125 65.344 81.9165 65.9553 81.9165 66.758V71H80.6425V63.328H81.9165V64.42C82.1685 64.028 82.5091 63.7247 82.9385 63.51C83.3771 63.2953 83.8578 63.188 84.3805 63.188Z" fill="black"/>
</svg>
