<svg width="131" height="131" viewBox="0 0 131 131" fill="none" xmlns="http://www.w3.org/2000/svg">
<circle cx="65.1245" cy="65.1245" r="65" transform="rotate(89.8902 65.1245 65.1245)" fill="#C4C4C4"/>
<path d="M64.9999 0.124592C100.898 0.0557815 130.056 29.1014 130.124 64.9999C130.193 100.898 101.147 130.056 65.2491 130.124L56.2491 130.142L55.9999 0.141843L64.9999 0.124592Z" fill="#715E9B"/>
<circle cx="65.1245" cy="65.1245" r="50" transform="rotate(89.8902 65.1245 65.1245)" fill="white"/>
<path d="M42.84 62.426C42.9053 61.5673 43.2367 60.8953 43.834 60.41C44.4313 59.9247 45.206 59.682 46.158 59.682C46.7927 59.682 47.3387 59.7987 47.796 60.032C48.2627 60.256 48.6127 60.564 48.846 60.956C49.0887 61.348 49.21 61.7913 49.21 62.286C49.21 62.8647 49.042 63.364 48.706 63.784C48.3793 64.204 47.95 64.4747 47.418 64.596V64.666C48.0247 64.8153 48.5053 65.1093 48.86 65.548C49.2147 65.9867 49.392 66.5607 49.392 67.27C49.392 67.802 49.2707 68.2827 49.028 68.712C48.7853 69.132 48.4213 69.4633 47.936 69.706C47.4507 69.9487 46.8673 70.07 46.186 70.07C45.1967 70.07 44.3847 69.8133 43.75 69.3C43.1153 68.7773 42.7607 68.04 42.686 67.088H43.918C43.9833 67.648 44.212 68.1053 44.604 68.46C44.996 68.8147 45.5187 68.992 46.172 68.992C46.8253 68.992 47.32 68.824 47.656 68.488C48.0013 68.1427 48.174 67.6993 48.174 67.158C48.174 66.458 47.9407 65.954 47.474 65.646C47.0073 65.338 46.3027 65.184 45.36 65.184H45.038V64.12H45.374C46.2327 64.1107 46.8813 63.9707 47.32 63.7C47.7587 63.42 47.978 62.9907 47.978 62.412C47.978 61.9173 47.8147 61.5207 47.488 61.222C47.1707 60.9233 46.7133 60.774 46.116 60.774C45.5373 60.774 45.0707 60.9233 44.716 61.222C44.3613 61.5207 44.1513 61.922 44.086 62.426H42.84ZM51.1121 64.834C51.1121 63.2287 51.3735 61.978 51.8961 61.082C52.4188 60.1767 53.3335 59.724 54.6401 59.724C55.9375 59.724 56.8475 60.1767 57.3701 61.082C57.8928 61.978 58.1541 63.2287 58.1541 64.834C58.1541 66.4673 57.8928 67.7367 57.3701 68.642C56.8475 69.5473 55.9375 70 54.6401 70C53.3335 70 52.4188 69.5473 51.8961 68.642C51.3735 67.7367 51.1121 66.4673 51.1121 64.834ZM56.8941 64.834C56.8941 64.022 56.8381 63.336 56.7261 62.776C56.6235 62.2067 56.4041 61.7493 56.0681 61.404C55.7415 61.0587 55.2655 60.886 54.6401 60.886C54.0055 60.886 53.5201 61.0587 53.1841 61.404C52.8575 61.7493 52.6381 62.2067 52.5261 62.776C52.4235 63.336 52.3721 64.022 52.3721 64.834C52.3721 65.674 52.4235 66.3787 52.5261 66.948C52.6381 67.5173 52.8575 67.9747 53.1841 68.32C53.5201 68.6653 54.0055 68.838 54.6401 68.838C55.2655 68.838 55.7415 68.6653 56.0681 68.32C56.4041 67.9747 56.6235 67.5173 56.7261 66.948C56.8381 66.3787 56.8941 65.674 56.8941 64.834ZM73.7436 60.312V70H72.4696V62.776L69.2496 70H68.3536L65.1196 62.762V70H63.8456V60.312H65.2176L68.8016 68.32L72.3856 60.312H73.7436ZM76.5622 61.082C76.3195 61.082 76.1142 60.998 75.9462 60.83C75.7782 60.662 75.6942 60.4567 75.6942 60.214C75.6942 59.9713 75.7782 59.766 75.9462 59.598C76.1142 59.43 76.3195 59.346 76.5622 59.346C76.7955 59.346 76.9915 59.43 77.1502 59.598C77.3182 59.766 77.4022 59.9713 77.4022 60.214C77.4022 60.4567 77.3182 60.662 77.1502 60.83C76.9915 60.998 76.7955 61.082 76.5622 61.082ZM77.1782 62.328V70H75.9042V62.328H77.1782ZM83.0875 62.188C84.0208 62.188 84.7768 62.4727 85.3555 63.042C85.9342 63.602 86.2235 64.414 86.2235 65.478V70H84.9635V65.66C84.9635 64.8947 84.7722 64.3113 84.3895 63.91C84.0068 63.4993 83.4842 63.294 82.8215 63.294C82.1495 63.294 81.6128 63.504 81.2115 63.924C80.8195 64.344 80.6235 64.9553 80.6235 65.758V70H79.3495V62.328H80.6235V63.42C80.8755 63.028 81.2162 62.7247 81.6455 62.51C82.0842 62.2953 82.5648 62.188 83.0875 62.188Z" fill="black"/>
</svg>
