<svg width="131" height="131" viewBox="0 0 131 131" fill="none" xmlns="http://www.w3.org/2000/svg">
<path d="M64.9998 0.124592C100.898 0.0557815 130.055 29.1014 130.124 64.9999C130.193 100.898 101.147 130.056 65.249 130.124C29.3506 130.193 0.193337 101.148 0.124527 65.2491C0.0557166 29.3506 29.1014 0.193402 64.9998 0.124592Z" fill="#715E9B"/>
<circle cx="65.0957" cy="65.0957" r="50" transform="rotate(89.8902 65.0957 65.0957)" fill="white"/>
<path d="M48.51 62.286C48.3047 61.25 47.6653 60.732 46.592 60.732C45.7613 60.732 45.1407 61.054 44.73 61.698C44.3193 62.3327 44.1187 63.3827 44.128 64.848C44.3427 64.3627 44.6973 63.9847 45.192 63.714C45.696 63.434 46.256 63.294 46.872 63.294C47.8333 63.294 48.5987 63.5927 49.168 64.19C49.7467 64.7873 50.036 65.6133 50.036 66.668C50.036 67.3027 49.91 67.872 49.658 68.376C49.4153 68.88 49.042 69.2813 48.538 69.58C48.0433 69.8787 47.4413 70.028 46.732 70.028C45.7707 70.028 45.0193 69.8133 44.478 69.384C43.9367 68.9547 43.5587 68.362 43.344 67.606C43.1293 66.85 43.022 65.9167 43.022 64.806C43.022 61.3807 44.2167 59.668 46.606 59.668C47.5207 59.668 48.2393 59.9153 48.762 60.41C49.2847 60.9047 49.5927 61.53 49.686 62.286H48.51ZM46.606 64.372C46.2047 64.372 45.8267 64.456 45.472 64.624C45.1173 64.7827 44.828 65.03 44.604 65.366C44.3893 65.6927 44.282 66.094 44.282 66.57C44.282 67.2793 44.4873 67.858 44.898 68.306C45.3087 68.7447 45.8967 68.964 46.662 68.964C47.3153 68.964 47.8333 68.7633 48.216 68.362C48.608 67.9513 48.804 67.4007 48.804 66.71C48.804 65.982 48.6173 65.4127 48.244 65.002C47.8707 64.582 47.3247 64.372 46.606 64.372ZM51.7547 64.834C51.7547 63.2287 52.0161 61.978 52.5387 61.082C53.0614 60.1767 53.9761 59.724 55.2827 59.724C56.5801 59.724 57.4901 60.1767 58.0127 61.082C58.5354 61.978 58.7967 63.2287 58.7967 64.834C58.7967 66.4673 58.5354 67.7367 58.0127 68.642C57.4901 69.5473 56.5801 70 55.2827 70C53.9761 70 53.0614 69.5473 52.5387 68.642C52.0161 67.7367 51.7547 66.4673 51.7547 64.834ZM57.5367 64.834C57.5367 64.022 57.4807 63.336 57.3687 62.776C57.2661 62.2067 57.0467 61.7493 56.7107 61.404C56.3841 61.0587 55.9081 60.886 55.2827 60.886C54.6481 60.886 54.1627 61.0587 53.8267 61.404C53.5001 61.7493 53.2807 62.2067 53.1687 62.776C53.0661 63.336 53.0147 64.022 53.0147 64.834C53.0147 65.674 53.0661 66.3787 53.1687 66.948C53.2807 67.5173 53.5001 67.9747 53.8267 68.32C54.1627 68.6653 54.6481 68.838 55.2827 68.838C55.9081 68.838 56.3841 68.6653 56.7107 68.32C57.0467 67.9747 57.2661 67.5173 57.3687 66.948C57.4807 66.3787 57.5367 65.674 57.5367 64.834ZM74.3862 60.312V70H73.1122V62.776L69.8922 70H68.9962L65.7622 62.762V70H64.4882V60.312H65.8602L69.4442 68.32L73.0282 60.312H74.3862ZM77.2048 61.082C76.9621 61.082 76.7568 60.998 76.5888 60.83C76.4208 60.662 76.3368 60.4567 76.3368 60.214C76.3368 59.9713 76.4208 59.766 76.5888 59.598C76.7568 59.43 76.9621 59.346 77.2048 59.346C77.4381 59.346 77.6341 59.43 77.7928 59.598C77.9608 59.766 78.0448 59.9713 78.0448 60.214C78.0448 60.4567 77.9608 60.662 77.7928 60.83C77.6341 60.998 77.4381 61.082 77.2048 61.082ZM77.8208 62.328V70H76.5468V62.328H77.8208ZM83.7301 62.188C84.6634 62.188 85.4194 62.4727 85.9981 63.042C86.5767 63.602 86.8661 64.414 86.8661 65.478V70H85.6061V65.66C85.6061 64.8947 85.4147 64.3113 85.0321 63.91C84.6494 63.4993 84.1267 63.294 83.4641 63.294C82.7921 63.294 82.2554 63.504 81.8541 63.924C81.4621 64.344 81.2661 64.9553 81.2661 65.758V70H79.9921V62.328H81.2661V63.42C81.5181 63.028 81.8587 62.7247 82.2881 62.51C82.7267 62.2953 83.2074 62.188 83.7301 62.188Z" fill="black"/>
</svg>
