<svg width="131" height="131" viewBox="0 0 131 131" fill="none" xmlns="http://www.w3.org/2000/svg">
<circle cx="65.1245" cy="65.1245" r="65" transform="rotate(89.8902 65.1245 65.1245)" fill="#C4C4C4"/>
<path d="M64.9999 0.124592C100.898 0.0557815 130.056 29.1014 130.124 64.9999C130.193 100.898 101.147 130.056 65.2491 130.124L56.2491 130.142L55.9999 0.141843L64.9999 0.124592Z" fill="#715E9B"/>
<path d="M7.62939e-06 60H130V65C130 100.899 100.899 130 65 130C29.1015 130 7.62939e-06 100.899 7.62939e-06 65V60Z" fill="#715E9B"/>
<circle cx="65.1245" cy="65.1245" r="50" transform="rotate(89.8902 65.1245 65.1245)" fill="white"/>
<path d="M42.56 66.746V65.78L47.474 58.976H49V65.64H50.4V66.746H49V69H47.74V66.746H42.56ZM47.796 60.306L44.03 65.64H47.796V60.306ZM58.1267 59.984H53.2127V63.176C53.4274 62.8773 53.7447 62.6347 54.1647 62.448C54.5847 62.252 55.0374 62.154 55.5227 62.154C56.2974 62.154 56.9274 62.3173 57.4127 62.644C57.898 62.9613 58.2434 63.3767 58.4487 63.89C58.6634 64.394 58.7707 64.9307 58.7707 65.5C58.7707 66.172 58.6447 66.774 58.3927 67.306C58.1407 67.838 57.7534 68.258 57.2307 68.566C56.7174 68.874 56.078 69.028 55.3127 69.028C54.3327 69.028 53.5394 68.776 52.9327 68.272C52.326 67.768 51.9574 67.096 51.8267 66.256H53.0727C53.194 66.788 53.4507 67.2033 53.8427 67.502C54.2347 67.8007 54.7294 67.95 55.3267 67.95C56.064 67.95 56.6194 67.7307 56.9927 67.292C57.366 66.844 57.5527 66.256 57.5527 65.528C57.5527 64.8 57.366 64.24 56.9927 63.848C56.6194 63.4467 56.0687 63.246 55.3407 63.246C54.846 63.246 54.412 63.3673 54.0387 63.61C53.6747 63.8433 53.4087 64.1653 53.2407 64.576H52.0367V58.864H58.1267V59.984ZM74.3041 59.312V69H73.0301V61.776L69.8101 69H68.9141L65.6801 61.762V69H64.4061V59.312H65.7781L69.3621 67.32L72.9461 59.312H74.3041ZM77.1227 60.082C76.8801 60.082 76.6747 59.998 76.5067 59.83C76.3387 59.662 76.2547 59.4567 76.2547 59.214C76.2547 58.9713 76.3387 58.766 76.5067 58.598C76.6747 58.43 76.8801 58.346 77.1227 58.346C77.3561 58.346 77.5521 58.43 77.7107 58.598C77.8787 58.766 77.9627 58.9713 77.9627 59.214C77.9627 59.4567 77.8787 59.662 77.7107 59.83C77.5521 59.998 77.3561 60.082 77.1227 60.082ZM77.7387 61.328V69H76.4647V61.328H77.7387ZM83.648 61.188C84.5814 61.188 85.3374 61.4727 85.916 62.042C86.4947 62.602 86.784 63.414 86.784 64.478V69H85.524V64.66C85.524 63.8947 85.3327 63.3113 84.95 62.91C84.5674 62.4993 84.0447 62.294 83.382 62.294C82.71 62.294 82.1734 62.504 81.772 62.924C81.38 63.344 81.184 63.9553 81.184 64.758V69H79.91V61.328H81.184V62.42C81.436 62.028 81.7767 61.7247 82.206 61.51C82.6447 61.2953 83.1254 61.188 83.648 61.188Z" fill="black"/>
</svg>
